<mxfile host="app.diagrams.net" modified="2024-08-12T15:58:53.002Z" agent="Mozilla/5.0 (Windows NT 10.0; Win64; x64) AppleWebKit/537.36 (KHTML, like Gecko) Chrome/127.0.0.0 Safari/537.36" etag="4cy8hY2dXU3umavgXGs3" version="24.5.2" type="github">
  <diagram name="Page-1" id="929967ad-93f9-6ef4-fab6-5d389245f69c">
    <mxGraphModel dx="1050" dy="557" grid="1" gridSize="10" guides="1" tooltips="1" connect="1" arrows="1" fold="1" page="1" pageScale="1.5" pageWidth="1169" pageHeight="826" background="none" math="0" shadow="0">
      <root>
        <mxCell id="0" style=";html=1;" />
        <mxCell id="1" style=";html=1;" parent="0" />
        <mxCell id="31M5wrhYhJu7jo80QgoE-2" value="Client" style="html=1;whiteSpace=wrap;" vertex="1" parent="1">
          <mxGeometry x="577" y="230" width="110" height="50" as="geometry" />
        </mxCell>
        <mxCell id="31M5wrhYhJu7jo80QgoE-6" value="Object" style="html=1;whiteSpace=wrap;" vertex="1" parent="1">
          <mxGeometry x="687" y="130" width="110" height="50" as="geometry" />
        </mxCell>
        <mxCell id="31M5wrhYhJu7jo80QgoE-7" value="WebPortal" style="html=1;whiteSpace=wrap;" vertex="1" parent="1">
          <mxGeometry x="700" y="230" width="110" height="50" as="geometry" />
        </mxCell>
        <mxCell id="31M5wrhYhJu7jo80QgoE-8" value="AdminPortal" style="html=1;whiteSpace=wrap;" vertex="1" parent="1">
          <mxGeometry x="867" y="230" width="110" height="50" as="geometry" />
        </mxCell>
        <mxCell id="31M5wrhYhJu7jo80QgoE-10" value="ConsoleLB" style="html=1;whiteSpace=wrap;" vertex="1" parent="1">
          <mxGeometry x="577" y="310" width="233" height="50" as="geometry" />
        </mxCell>
        <mxCell id="31M5wrhYhJu7jo80QgoE-11" value="API Gateway" style="html=1;whiteSpace=wrap;" vertex="1" parent="1">
          <mxGeometry x="577" y="380" width="403" height="50" as="geometry" />
        </mxCell>
        <mxCell id="31M5wrhYhJu7jo80QgoE-12" value="AZ1" style="verticalAlign=top;align=left;spacingTop=8;spacingLeft=2;spacingRight=12;shape=cube;size=10;direction=south;fontStyle=4;html=1;whiteSpace=wrap;" vertex="1" parent="1">
          <mxGeometry x="577" y="480" width="180" height="170" as="geometry" />
        </mxCell>
        <mxCell id="31M5wrhYhJu7jo80QgoE-13" value="AZ2" style="verticalAlign=top;align=left;spacingTop=8;spacingLeft=2;spacingRight=12;shape=cube;size=10;direction=south;fontStyle=4;html=1;whiteSpace=wrap;" vertex="1" parent="1">
          <mxGeometry x="780" y="480" width="180" height="170" as="geometry" />
        </mxCell>
        <mxCell id="31M5wrhYhJu7jo80QgoE-14" value="BackendService" style="html=1;whiteSpace=wrap;" vertex="1" parent="1">
          <mxGeometry x="612" y="520" width="110" height="50" as="geometry" />
        </mxCell>
        <mxCell id="31M5wrhYhJu7jo80QgoE-15" value="BackendService" style="html=1;whiteSpace=wrap;" vertex="1" parent="1">
          <mxGeometry x="810" y="520" width="110" height="50" as="geometry" />
        </mxCell>
        <mxCell id="31M5wrhYhJu7jo80QgoE-16" value="BackendService&lt;div&gt;(Grayscale)&lt;/div&gt;" style="html=1;whiteSpace=wrap;" vertex="1" parent="1">
          <mxGeometry x="612" y="580" width="110" height="50" as="geometry" />
        </mxCell>
        <mxCell id="31M5wrhYhJu7jo80QgoE-17" value="BackendService&lt;div&gt;(Grayscale)&lt;/div&gt;" style="html=1;whiteSpace=wrap;" vertex="1" parent="1">
          <mxGeometry x="810" y="580" width="110" height="50" as="geometry" />
        </mxCell>
      </root>
    </mxGraphModel>
  </diagram>
</mxfile>
